<svg width="32" height="32" viewBox="0 0 512 512" fill="none" xmlns="http://www.w3.org/2000/svg"><filter id="dropShadow" x="-20%" y="-20%" width="140%" height="140%"><feDropShadow dx="0" dy="0" stdDeviation="10" flood-color="#000000" flood-opacity="0.3"></feDropShadow></filter><defs><linearGradient id="bgGradient" x1="0%" y1="0%" x2="100%" y2="100%"><stop offset="0%" stop-color="#1a4b8c"></stop> <stop offset="100%" stop-color="#092851"></stop> </linearGradient><radialGradient id="glowGradient" cx="50%" cy="50%" r="50%" fx="50%" fy="50%"><stop offset="0%" stop-color="rgba(29, 185, 84, 0.3)"></stop> <stop offset="100%" stop-color="rgba(29, 185, 84, 0)"></stop></radialGradient></defs><circle cx="256" cy="256" r="245" fill="url(#bgGradient)" filter="url(#dropShadow)"></circle><circle cx="256" cy="256" r="242" stroke="#ffffff" stroke-width="2" fill="none"></circle><circle cx="256" cy="256" r="248" stroke="#1DB954" stroke-width="4" fill="none"></circle><circle cx="256" cy="256" r="220" fill="url(#glowGradient)"></circle><path d="M128 316C208 266 304 316 384 266" stroke="#1DB954" stroke-width="18" stroke-linecap="round"></path><path d="M96 376C208 306 304 376 416 306" stroke="#1DB954" stroke-width="18" stroke-linecap="round"></path><path d="M64 436C208 346 304 436 448 346" stroke="#1DB954" stroke-width="18" stroke-linecap="round"></path><defs><radialGradient id="redGradient" cx="40%" cy="40%" r="90%" fx="40%" fy="40%"><stop offset="0%" stop-color="#FF5555"></stop><stop offset="100%" stop-color="#CC0000"></stop></radialGradient></defs><filter id="buttonShadow" x="-20%" y="-20%" width="140%" height="140%"><feDropShadow dx="0" dy="4" stdDeviation="6" flood-color="#000000" flood-opacity="0.4"></feDropShadow></filter><circle cx="256" cy="256" r="100" fill="url(#redGradient)" filter="url(#buttonShadow)"></circle><path d="M220 200L320 256L220 312V200Z" fill="white"></path><circle cx="230" cy="230" r="10" fill="rgba(255, 255, 255, 0.4)"></circle></svg>